# Blender v2.79 (sub 0) OBJ File: 'arch_reference.blend'
# www.blender.org
v -19.237169 0.032240 -17.047607
v -19.278368 0.035650 -16.993362
v -19.296535 0.045111 -16.979673
v -19.287157 0.155848 -17.008522
v -19.274153 0.039979 -16.948620
v -19.287588 0.142145 -16.955114
v -19.235052 0.156131 -16.933126
v -19.245275 0.040448 -16.928814
v -19.269909 0.043430 -16.839687
v -19.288858 0.077811 -16.778982
v -19.268431 0.095524 -16.795240
v -19.279129 0.111749 -16.752279
v -19.283669 0.086265 -16.745611
v -19.259018 0.168006 -16.771620
v -19.261965 0.052487 -16.746050
v -19.243231 0.036389 -16.748840
v -19.233997 0.097658 -16.711716
v -19.242811 0.036316 -16.612190
v -19.245518 0.055045 -16.587231
v -19.246050 0.098627 -16.592430
v -19.276459 0.037677 -16.622988
v -19.270061 0.036203 -16.570549
v -19.280039 0.080717 -16.564972
v -19.237524 0.148453 -17.048223
v -19.258001 0.181659 -16.950214
v -19.252277 0.204068 -16.861462
v -19.272369 0.183819 -16.782560
v -19.232479 0.167319 -16.635994
v -19.277063 0.145479 -16.616013
v -19.286015 0.133452 -16.607574
v -19.259150 0.248192 -17.014725
v -19.269203 0.308784 -16.933393
v -19.252745 0.128743 -16.835014
v -19.253849 0.257915 -16.730108
v -19.241879 0.242995 -16.682774
v -19.258343 0.174284 -16.629484
v -19.279896 0.229079 -16.573830
v -19.270615 0.187430 -16.570862
v -19.257742 0.688193 -16.991405
v -19.244692 0.604273 -16.925747
v -19.242447 0.309295 -16.905807
v -19.235315 0.102076 -16.611158
v -19.260065 0.436412 -16.575392
v -19.236561 0.537464 -17.057413
v -19.270126 0.458610 -16.928059
v -19.234512 0.282548 -16.886587
v -19.253498 0.764536 -16.844067
v -19.254662 0.491855 -16.737816
v -19.233540 0.221612 -16.708675
v -19.247049 0.795964 -16.695427
v -19.262564 0.531445 -16.648756
v -19.264700 0.676982 -16.567902
v -19.251869 0.627831 -16.765911
v -19.274504 0.553329 -16.976904
v -19.270918 0.721343 -16.639576
v -19.234093 1.143018 -16.849964
v -19.250046 0.640197 -16.799255
v -19.262066 0.895516 -16.776754
v -19.253653 1.130023 -16.781441
v -19.238415 1.088582 -17.035547
v -19.269035 0.757058 -16.993933
v -19.261396 1.018887 -16.953224
v -19.243023 1.249810 -16.887817
v -19.234678 0.727850 -16.651417
v -19.254761 0.719062 -16.583158
v -19.247505 1.365315 -17.016972
v -19.258390 1.272364 -16.914623
v -19.249929 1.368990 -16.834442
v -19.251890 1.546534 -16.821512
v -19.245522 1.320405 -16.806679
v -19.254150 1.310881 -16.570034
v -19.255087 1.525038 -16.746672
v -19.247683 1.758456 -16.708681
v -19.263626 1.017327 -16.653444
v -19.246267 1.768791 -16.730927
v -19.271404 1.147105 -16.635828
v -19.243317 1.329255 -16.581209
v -19.256453 1.452128 -16.618723
v -19.261074 1.674396 -16.974239
v -19.253578 2.457969 -16.790718
v -19.244797 2.247259 -16.778872
v -19.243454 1.608355 -16.996899
v -19.254457 1.798963 -16.665152
v -19.246363 1.268037 -16.921986
v -19.243370 2.010665 -17.045164
v -19.246668 1.823932 -16.877783
v -19.242365 2.066017 -17.011881
v -19.256744 2.160669 -16.620693
v -19.236502 1.813706 -16.571123
v -19.242287 2.465984 -16.829796
v -19.255091 1.775137 -16.691933
v -19.238571 2.987645 -16.984732
v -19.244991 2.699821 -16.667667
v -19.243378 2.719282 -16.617508
v -19.240793 2.372391 -16.875149
v -19.245726 2.501739 -16.932909
v -19.242476 1.677933 -16.675484
v -19.250151 2.636900 -16.594263
v -19.247852 2.086462 -16.573591
v -19.243475 2.540786 -16.684681
v -19.240715 1.458441 -17.062517
v -19.242865 2.730167 -16.799604
v -19.234652 2.151583 -16.570263
v -19.254187 2.561103 -16.936249
v -19.248619 2.999164 -16.852455
v -19.249573 3.000749 -16.667299
v -19.250629 2.777301 -17.036346
v -19.251669 2.709588 -16.892397
v -19.247244 2.989204 -16.640852
v -19.236420 2.542410 -16.559469
v -19.247429 3.000108 -16.996185
v -19.244719 2.728713 -17.052107
v -19.253685 2.656603 -16.702381
v -19.247063 2.310524 -17.077299
v -19.247755 3.000430 -16.569916
v -19.238695 2.987802 -16.748167
v -19.237347 2.987619 -17.033669
v -19.251633 2.987835 -16.633284
v -19.239550 2.869208 -16.565607
v -19.236710 2.987763 -16.894337
v -19.248659 2.999794 -16.761568
v -19.233704 2.987292 -16.687990
v -19.250849 2.805018 -17.073982
v -19.246450 2.996900 -16.953857
v -19.236084 2.987411 -16.942280
v -19.245266 2.998445 -16.902201
v -19.246225 2.997530 -16.812595
v -19.237175 2.989469 -16.799320
v -19.245876 3.001726 -17.074495
v -19.238647 2.992658 -17.054010
v -19.236078 2.989121 -16.847786
v -19.245897 2.998724 -16.713795
v -19.250294 2.997716 -16.619764
v -19.259455 2.983013 -16.590176
vt 1.218229 -0.505785
vt 1.197989 -0.449904
vt 1.248941 -0.501795
vt 1.297973 -0.503996
vt 1.289814 -0.452272
vt 1.327689 -0.503445
vt 1.327602 -0.441049
vt 1.493720 -0.452572
vt 1.324308 -0.503697
vt 1.494095 -0.501496
vt 1.556789 -0.471734
vt 1.633160 -0.467148
vt 1.605632 -0.485018
vt 1.660667 -0.479953
vt -0.628938 -0.453786
vt -0.657618 -0.487282
vt -0.666721 -0.484041
vt -0.641061 -0.455636
vt 1.665047 -0.505361
vt 1.651013 -0.484223
vt 1.621720 -0.437090
vt 1.731057 -0.470811
vt 1.902115 -0.505351
vt 1.885802 -0.467467
vt 1.918813 -0.463165
vt 1.948870 -0.496134
vt -0.946964 -0.496267
vt -0.922661 -0.469274
vt -0.903522 -0.469448
vt -0.883820 -0.503020
vt 1.920272 -0.454921
vt 1.985913 -0.482586
vt 1.885592 -0.505483
vt 1.976629 -0.506361
vt 1.131868 -0.506382
vt 1.132497 -0.438354
vt 1.296721 -0.430289
vt 1.449686 -0.413628
vt 1.612961 -0.423185
vt 1.605064 -0.426911
vt 1.683661 -0.395611
vt 1.725509 -0.409886
vt 1.757196 -0.406667
vt 1.852002 -0.436499
vt -0.907901 -0.454153
vt -0.895539 -0.436620
vt -0.878963 -0.425507
vt 0.157461 -0.464860
vt 0.336326 -0.433750
vt 0.547229 -0.440784
vt -0.902554 -0.458516
vt 1.963227 -0.405400
vt 1.183105 -0.395084
vt 1.313350 -0.371678
vt -0.302630 -0.391640
vt -0.295078 -0.418553
vt -0.319700 -0.379527
vt 1.376377 -0.361424
vt 1.406389 -0.375654
vt 1.840222 -0.145274
vt 1.887533 -0.444793
vt 1.978803 -0.426709
vt 1.113322 -0.242291
vt 1.200949 -0.165455
vt 1.197794 -0.450178
vt 1.339906 -0.214741
vt 1.603345 -0.191179
vt 0.438484 -0.376923
vt 0.382240 -0.410386
vt 0.210809 -0.418932
vt 1.241410 -0.235073
vt 1.329648 -0.262881
vt -0.335269 -0.258530
vt -0.334558 -0.321718
vt 1.513071 -0.121345
vt 1.681122 -0.265856
vt 1.773814 -0.084315
vt -0.841978 -0.219249
vt 1.869915 -0.418405
vt 1.844315 -0.252862
vt 1.974928 -0.182056
vt 1.637987 -0.194614
vt 0.481384 -0.251448
vt 0.198371 -0.381852
vt 0.357022 -0.270354
vt 1.866976 -0.147861
vt 1.162973 0.042055
vt 1.470116 0.080488
vt 1.595542 0.073470
vt 1.230752 -0.123804
vt 1.290338 0.010302
vt 1.412072 0.145288
vt 1.621300 -0.049941
vt -0.595542 0.073470
vt -0.602354 -0.412612
vt -0.614133 -0.039698
vt 1.174704 0.198400
vt -0.217756 -0.225484
vt -0.215776 -0.108509
vt -0.207477 -0.262200
vt 0.746433 -0.202198
vt 0.406990 -0.287078
vt 0.725158 -0.121484
vt -0.956219 -0.144404
vt -0.969873 -0.280848
vt -0.970357 -0.148614
vt 1.830599 0.023250
vt -0.347383 -0.097898
vt -0.353687 0.126526
vt -0.347703 0.110057
vt 1.347953 0.141341
vt 1.487844 0.198762
vt 1.527122 0.294046
vt 1.559307 0.169102
vt 1.608105 0.665718
vt 1.799898 0.363617
vt 0.014191 0.021226
vt 0.418742 0.047946
vt 0.122346 -0.091770
vt -0.838214 -0.048055
vt 1.886969 0.243704
vt 1.648061 0.281653
vt 1.727621 0.406679
vt 1.723629 0.419769
vt -0.966272 0.177961
vt 1.094409 0.247548
vt 1.896236 0.085123
vt -0.959021 0.179075
vt 1.225244 0.359709
vt 0.290449 0.019343
vt 0.374678 0.162801
vt 0.460301 -0.021297
vt 1.214410 0.325786
vt 0.225468 0.235501
vt 1.974694 0.236143
vt 1.749704 0.417407
vt 1.117410 0.540365
vt 1.818736 0.428750
vt 1.234965 1.058158
vt 1.306812 0.832847
vt 1.358135 0.154424
vt 1.436924 0.443806
vt 1.179222 0.569195
vt -0.572624 0.788730
vt -0.592566 0.552154
vt 1.882553 0.619821
vt -0.971938 0.411505
vt 1.524226 0.781215
vt 1.572834 0.777593
vt 1.930383 0.872121
vt 1.451097 0.733510
vt 1.799708 0.906367
vt 1.887042 0.393452
vt 1.343958 0.805407
vt -0.810598 0.553892
vt -0.807851 0.376156
vt -0.814988 0.276900
vt -0.337316 0.592185
vt 1.896567 0.914627
vt 1.973282 0.566760
vt 1.977638 0.485058
vt 1.778304 0.829755
vt 1.072059 0.699262
vt 1.567333 0.915880
vt 1.107686 0.558102
vt 1.094016 0.490214
vt 0.952231 0.542710
vt -0.339350 0.614949
vt 1.407376 0.910425
vt 1.635103 1.064195
vt 1.141030 0.945456
vt 1.462425 1.063868
vt 0.046056 0.867488
vt 0.188242 0.923686
vt 0.214630 0.585674
vt 1.662995 1.057925
vt 1.718478 0.883726
vt 1.117782 0.620883
vt 0.958440 0.577507
vt 0.966868 0.676053
vt 1.092980 0.916846
vt 1.852805 1.058702
vt 1.812549 1.064278
vt 1.213952 1.063516
vt 1.289213 1.062787
vt 1.567082 1.059221
vt 1.861410 1.058047
vt 1.977440 1.064970
vt 1.993924 0.822231
vt 1.071527 0.961231
vt 1.143391 1.058686
vt 1.985362 0.995329
vt 1.312652 1.058221
vt 1.399389 1.058606
vt 1.482055 1.059100
vt 1.766426 1.058818
vt 1.108667 1.061218
vt 1.081222 1.065556
vt 1.381768 1.063161
vt 1.543292 1.063261
vt 0.967388 0.944247
vt 0.787503 0.926594
vt 0.973181 1.037214
vt 0.855810 1.025409
vt 1.719458 1.063475
vt 1.941424 1.056723
vt 1.888923 1.063104
vn 0.7057 0.0899 0.7027
vn 0.8863 -0.0383 0.4615
vn 0.9805 0.1071 0.1649
vn 0.6845 0.0438 -0.7277
vn 0.8267 -0.0827 -0.5565
vn 0.9092 -0.0884 -0.4069
vn 0.8970 -0.0531 -0.4389
vn 0.9682 -0.0702 0.2403
vn 0.9256 -0.2496 0.2844
vn 0.9362 -0.1849 0.2988
vn 0.5629 -0.3511 -0.7482
vn 0.7286 -0.5402 0.4210
vn 0.2993 -0.3008 -0.9055
vn 0.7025 -0.0951 -0.7053
vn -0.3124 -0.1977 -0.9292
vn 0.8224 -0.1519 -0.5483
vn 0.9941 -0.0449 -0.0988
vn 0.9920 -0.0874 0.0911
vn 0.9397 0.0536 0.3377
vn 0.4226 0.1829 0.8877
vn 0.5043 -0.0839 0.8594
vn 0.8096 0.1546 0.5662
vn 0.6482 0.0263 0.7610
vn 0.9888 0.1119 -0.0988
vn 0.9667 0.2305 -0.1114
vn 0.7965 0.0056 0.6046
vn 0.6898 0.0090 0.7240
vn 0.3824 0.0584 -0.9222
vn 0.9842 -0.0227 0.1754
vn 0.9949 0.0110 -0.1001
vn 0.8495 0.0106 -0.5275
vn 0.9868 0.0303 -0.1590
vn 0.9985 0.0149 0.0520
vn 0.9997 0.0159 0.0208
vn -0.0052 0.1199 0.9928
vn 0.4924 0.1937 0.8485
vn 0.8132 -0.0485 -0.5800
vn 0.6459 -0.0346 0.7626
vn 0.3937 0.0414 -0.9183
vn 0.9416 0.0147 -0.3363
vn 0.9894 0.0102 0.1449
vn 0.9257 0.0301 0.3772
vn 0.0640 -0.0568 -0.9963
vn 0.9367 -0.0175 0.3496
vn 0.4505 -0.0177 0.8926
vn 0.6767 0.0112 -0.7362
vn 0.9514 -0.0135 0.3078
vn -0.3230 0.0208 -0.9462
vn 0.9964 -0.0253 -0.0804
vn 0.6404 0.0248 -0.7676
vn 0.9294 -0.0182 0.3686
vn 0.9308 -0.0226 -0.3649
vn 0.9900 0.0021 0.1413
vn 0.0584 0.0150 0.9982
vn 0.2447 -0.0230 -0.9693
vn 0.9661 -0.0122 -0.2578
vn 0.9697 -0.0046 0.2444
vn 0.9799 -0.0012 0.1995
vn 0.9296 -0.0070 0.3686
vn 0.4571 -0.0144 -0.8893
vn 0.5770 -0.0053 0.8167
vn 0.9957 -0.0130 -0.0922
vn 0.9885 0.0048 -0.1511
vn 0.5408 0.0943 -0.8358
vn 0.9866 -0.0055 0.1632
vn 0.3399 -0.0123 -0.9404
vn -0.8495 0.0098 -0.5275
vn 0.5679 0.0052 0.8231
vn 0.4494 -0.0011 -0.8933
vn 0.8968 -0.0005 0.4424
vn 0.9738 -0.0093 -0.2273
vn 0.9955 0.0005 0.0943
vn 0.9953 -0.0089 0.0963
vn 0.9239 0.0028 -0.3827
vn 0.9292 -0.0062 -0.3696
vn 0.9948 -0.0033 -0.1022
vn 0.9713 0.0019 0.2380
vn 0.9857 -0.0055 -0.1682
vn 0.3217 -0.0001 -0.9468
vn 0.9998 0.0079 -0.0171
vn 0.9828 0.0005 -0.1846
vn -0.7361 0.0225 -0.6765
vn 0.9996 -0.0151 0.0255
vn 0.9575 -0.0146 0.2881
vn 0.5000 -0.0097 0.8660
vn 0.9911 -0.0031 -0.1331
vn 0.9938 0.0035 0.1111
vn 0.9658 -0.0134 -0.2589
vn 0.8553 -0.0245 -0.5175
vn 0.9615 -0.0070 -0.2748
vn 0.9301 -0.0101 -0.3672
vn 0.0447 -0.0014 -0.9990
vn 0.5827 -0.0040 -0.8127
vn 0.8479 -0.0087 -0.5300
vn 0.0838 -0.0053 -0.9965
vn 0.9881 -0.0093 -0.1534
vn 0.9973 -0.0049 0.0729
vn 0.9819 -0.0049 -0.1891
vn 0.6658 -0.0127 0.7460
vn 0.9849 -0.0007 -0.1731
vn 0.8259 -0.0111 -0.5638
vn 0.6651 -0.0064 -0.7467
vn 0.9694 -0.0076 -0.2453
vn 0.9941 0.0039 -0.1085
vn 0.1218 0.0256 -0.9922
vn 0.9058 -0.0293 -0.4228
vn 0.9961 -0.0100 -0.0879
vn 0.9554 -0.0284 -0.2938
vn 0.9542 -0.0171 -0.2987
vn 0.9618 0.0048 0.2736
vn 0.9684 -0.0107 -0.2492
vn 0.9884 -0.0138 -0.1510
vn 0.7284 0.0018 -0.6852
vn 0.9987 0.0033 0.0504
vn 0.9863 -0.0014 0.1651
vn 0.9951 -0.0060 -0.0989
vn 0.9848 -0.0254 -0.1721
vn 0.9810 -0.0196 -0.1931
vn 0.9871 0.0150 0.1594
vn 0.8520 0.0230 -0.5231
vn 0.9413 -0.0210 -0.3368
vn 0.9966 -0.0274 0.0780
vn 0.2573 -0.0184 -0.9662
vn 0.9526 -0.0312 -0.3028
vn 0.9291 -0.0239 -0.3691
vn 0.8326 -0.0309 -0.5530
vn 0.9948 -0.0102 0.1010
vn 0.9730 -0.0391 -0.2274
vn 0.9392 -0.0246 -0.3424
vn 0.9850 -0.0276 -0.1704
vn 0.9942 -0.0178 -0.1064
vn 0.9945 -0.0254 -0.1015
vn 0.9901 0.0321 -0.1369
vn 0.9927 0.0256 0.1177
s 1
f 2/1/1 4/2/2 3/3/3
f 5/4/4 3/3/3 6/5/5
f 8/6/6 5/4/4 6/5/5
f 7/7/7 8/6/6 6/5/5
f 7/7/7 33/8/8 8/9/6
f 33/8/8 9/10/9 8/9/6
f 11/11/10 12/12/11 9/10/9
f 33/8/8 11/11/10 9/10/9
f 12/12/11 10/13/12 9/10/9
f 12/12/11 13/14/13 10/13/12
f 14/15/14 15/16/15 13/17/13
f 14/15/14 13/17/13 12/18/11
f 16/19/16 15/20/15 14/21/14
f 17/22/17 18/23/18 16/19/16
f 42/24/19 18/23/18 17/22/17
f 42/24/19 20/25/20 18/23/18
f 20/25/20 19/26/21 18/23/18
f 19/27/21 20/28/20 30/29/22
f 19/27/21 30/29/22 21/30/23
f 30/31/22 23/32/24 21/33/23
f 23/32/24 22/34/25 21/33/23
f 1/35/26 24/36/27 2/1/1
f 2/1/1 24/36/27 4/2/2
f 6/5/5 3/3/3 4/2/2
f 25/37/28 7/7/7 6/5/5
f 26/38/29 33/8/8 7/7/7
f 27/39/30 12/12/11 11/11/10
f 12/12/11 27/40/30 14/21/14
f 34/41/31 16/19/16 14/21/14
f 49/42/32 17/22/17 16/19/16
f 49/42/32 16/19/16 34/41/31
f 49/42/32 35/43/33 17/22/17
f 28/44/34 17/22/17 35/43/33
f 28/44/34 42/24/19 17/22/17
f 20/45/20 42/46/19 36/47/35
f 20/48/20 36/49/35 29/50/36
f 20/28/20 29/51/36 30/29/22
f 23/32/24 30/31/22 37/52/37
f 31/53/38 4/2/2 24/36/27
f 32/54/39 6/5/5 4/2/2
f 25/55/28 6/56/5 32/57/39
f 7/7/7 25/37/28 41/58/40
f 46/59/41 26/38/29 7/7/7
f 34/41/31 14/21/14 27/40/30
f 64/60/42 42/24/19 28/44/34
f 37/52/37 30/31/22 29/61/36
f 38/62/43 23/32/24 37/52/37
f 24/36/27 44/63/44 31/53/38
f 31/53/38 39/64/45 4/65/2
f 40/66/46 41/58/40 25/37/28
f 41/58/40 46/59/41 7/7/7
f 57/67/47 11/11/10 33/8/8
f 43/68/48 38/69/43 37/70/37
f 54/71/49 32/54/39 4/2/2
f 54/71/49 45/72/50 32/54/39
f 25/55/28 32/57/39 40/73/46
f 40/73/46 32/57/39 45/74/50
f 47/75/51 33/8/8 26/38/29
f 47/75/51 57/67/47 33/8/8
f 48/76/52 34/41/31 27/40/30
f 28/44/34 35/43/33 50/77/53
f 42/46/19 51/78/54 36/47/35
f 36/79/35 51/80/54 29/61/36
f 52/81/55 37/52/37 29/61/36
f 53/82/56 48/76/52 27/40/30
f 43/83/48 37/84/37 52/85/55
f 39/64/45 31/53/38 44/63/44
f 49/42/32 34/41/31 48/76/52
f 55/86/57 29/61/36 51/80/54
f 39/64/45 44/63/44 60/87/58
f 46/59/41 56/88/59 26/38/29
f 56/88/59 47/75/51 26/38/29
f 53/82/56 27/40/30 59/89/60
f 49/42/32 50/77/53 35/43/33
f 61/90/61 54/71/49 4/2/2
f 62/91/62 45/72/50 54/71/49
f 46/59/41 41/58/40 63/92/63
f 58/93/64 27/39/30 11/11/10
f 59/94/60 27/95/30 58/96/64
f 66/97/65 39/64/45 60/87/58
f 39/98/45 61/99/61 4/100/2
f 40/101/46 45/102/50 67/103/66
f 64/60/42 28/44/34 50/77/53
f 65/104/67 43/105/48 52/106/55
f 51/80/54 74/107/68 55/86/57
f 40/108/46 67/109/66 84/110/69
f 63/92/63 41/58/40 40/66/46
f 63/92/63 40/66/46 84/111/69
f 57/67/47 58/93/64 11/11/10
f 56/88/59 68/112/70 47/75/51
f 69/113/71 47/75/51 68/112/70
f 69/113/71 70/114/72 47/75/51
f 70/114/72 57/67/47 47/75/51
f 81/115/73 53/82/56 59/89/60
f 64/60/42 50/77/53 97/116/74
f 64/117/42 74/118/68 42/119/19
f 42/46/19 74/120/68 51/78/54
f 78/121/75 52/81/55 29/61/36
f 72/122/76 48/76/52 53/82/56
f 73/123/77 49/42/32 75/124/78
f 49/42/32 73/123/77 50/77/53
f 71/125/79 65/104/67 52/106/55
f 101/126/80 60/87/58 44/63/44
f 49/42/32 48/76/52 75/124/78
f 75/124/78 48/76/52 72/122/76
f 76/127/81 55/86/57 74/107/68
f 77/128/82 65/104/67 71/125/79
f 70/114/72 58/93/64 57/67/47
f 78/121/75 55/86/57 76/127/81
f 78/121/75 29/61/36 55/86/57
f 54/71/49 61/90/61 79/129/83
f 79/129/83 62/91/62 54/71/49
f 81/115/73 72/122/76 53/82/56
f 39/130/45 82/131/84 61/132/61
f 82/133/84 79/129/83 61/90/61
f 56/88/59 46/59/41 63/92/63
f 64/117/42 83/134/85 74/118/68
f 71/135/79 52/81/55 78/121/75
f 82/133/84 39/64/45 66/97/65
f 97/116/74 50/77/53 91/136/86
f 85/137/87 60/87/58 101/126/80
f 60/87/58 85/137/87 66/97/65
f 73/123/77 91/136/86 50/77/53
f 83/138/85 76/127/81 74/107/68
f 92/139/88 45/72/50 62/91/62
f 104/140/89 45/72/50 92/139/88
f 67/141/66 45/72/50 104/140/89
f 86/142/90 63/92/63 84/111/69
f 56/88/59 63/92/63 86/142/90
f 87/143/91 82/133/84 66/97/65
f 102/144/92 58/96/64 80/145/93
f 59/94/60 58/96/64 102/144/92
f 78/121/75 76/127/81 88/146/94
f 89/147/95 77/128/82 71/125/79
f 90/148/96 70/114/72 69/113/71
f 80/149/93 58/93/64 70/114/72
f 98/150/97 71/135/79 78/121/75
f 92/139/88 62/91/62 79/129/83
f 56/88/59 95/151/98 68/112/70
f 93/152/99 64/60/42 97/116/74
f 94/153/100 78/121/75 88/146/94
f 96/154/101 86/142/90 84/111/69
f 56/88/59 86/142/90 95/151/98
f 93/155/99 83/156/85 64/157/42
f 96/158/101 84/110/69 67/109/66
f 98/150/97 78/121/75 94/159/100
f 99/160/102 71/135/79 98/150/97
f 89/161/95 71/135/79 99/160/102
f 97/116/74 91/136/86 100/162/103
f 100/162/103 93/152/99 97/116/74
f 85/137/87 101/126/80 114/163/104
f 102/164/92 81/115/73 59/89/60
f 103/165/105 89/166/95 99/167/102
f 96/158/101 67/109/66 104/168/89
f 96/154/101 108/169/106 86/142/90
f 121/170/107 75/124/78 72/122/76
f 88/146/94 76/127/81 83/138/85
f 107/171/108 66/97/65 85/137/87
f 87/143/91 66/97/65 107/171/108
f 105/172/109 69/113/71 68/112/70
f 90/148/96 69/113/71 105/172/109
f 93/173/99 106/174/110 83/175/85
f 105/172/109 68/112/70 95/151/98
f 80/149/93 70/114/72 90/148/96
f 116/176/111 75/124/78 121/170/107
f 100/162/103 91/136/86 113/177/112
f 103/178/105 99/179/102 110/180/113
f 112/181/114 85/137/87 114/163/104
f 95/151/98 86/142/90 108/169/106
f 121/170/107 72/122/76 81/115/73
f 109/182/115 83/138/85 106/183/110
f 109/182/115 88/146/94 83/138/85
f 82/133/84 111/184/116 79/129/83
f 112/181/114 107/171/108 85/137/87
f 92/139/88 79/129/83 111/184/116
f 113/177/112 91/136/86 73/123/77
f 124/185/117 104/140/89 92/139/88
f 128/186/118 81/115/73 102/164/92
f 73/123/77 75/124/78 116/176/111
f 118/187/119 88/146/94 109/182/115
f 115/188/120 99/160/102 98/150/97
f 110/189/113 99/160/102 115/188/120
f 123/190/121 112/181/114 114/163/104
f 87/143/91 107/171/108 117/191/122
f 111/184/116 82/133/84 117/191/122
f 117/191/122 82/133/84 87/143/91
f 113/177/112 73/123/77 116/176/111
f 110/189/113 115/188/120 119/192/123
f 94/159/100 88/146/94 118/187/119
f 96/154/101 104/140/89 125/193/124
f 108/169/106 96/154/101 125/193/124
f 120/194/125 95/151/98 108/169/106
f 105/172/109 95/151/98 120/194/125
f 80/149/93 90/148/96 131/195/126
f 122/196/127 100/162/103 113/177/112
f 93/152/99 100/162/103 122/196/127
f 130/197/128 112/181/114 123/190/121
f 129/198/129 130/197/128 123/190/121
f 125/193/124 104/140/89 124/185/117
f 120/194/125 108/169/106 126/199/130
f 131/195/126 90/148/96 105/172/109
f 127/200/131 80/149/93 131/195/126
f 102/201/92 80/202/93 128/203/118
f 128/203/118 80/202/93 127/204/131
f 132/205/132 113/177/112 116/176/111
f 122/196/127 113/177/112 132/205/132
f 115/188/120 98/150/97 134/206/133
f 107/171/108 112/181/114 130/197/128
f 117/191/122 107/171/108 130/197/128
f 126/199/130 108/169/106 125/193/124
f 121/170/107 81/115/73 128/186/118
f 122/196/127 106/183/110 93/152/99
f 94/159/100 118/187/119 133/207/134
f 94/159/100 134/206/133 98/150/97
f 94/159/100 133/207/134 134/206/133
